<svg width="132" height="46" viewBox="0 0 132 46" fill="none" xmlns="http://www.w3.org/2000/svg">
<path d="M129.553 20.0163C128.543 20.0163 127.441 19.3736 127.441 17.9963C127.441 16.6191 128.543 15.9764 129.553 15.9764C130.563 15.9764 131.664 16.6191 131.664 17.9963C131.664 19.2818 130.563 20.0163 129.553 20.0163ZM129.553 19.8327C130.471 19.8327 131.481 19.1899 131.481 17.9963C131.481 16.7109 130.471 16.16 129.553 16.16C128.635 16.16 127.625 16.8027 127.625 17.9963C127.625 19.2818 128.635 19.8327 129.553 19.8327ZM128.818 19.0981V16.8945H129.736C130.104 16.8945 130.563 16.9863 130.563 17.5372C130.563 17.9045 130.287 18.0882 130.104 18.18L130.746 19.0981H130.471L129.92 18.2718H129.828H129.185V19.0981H128.818ZM129.002 17.9963H129.645C129.828 17.9963 130.287 17.9963 130.287 17.5372C130.287 17.0782 129.92 17.0782 129.645 17.0782H129.002V17.9963Z" fill="white"/>
<path d="M19.3732 8.63062L14.966 11.2015L7.16162 15.7923V20.934L14.966 16.435V36.7264L19.3732 34.1556V13.8641V8.63062Z" fill="white"/>
<path d="M30.5747 23.1376L25.0657 19.924V16.435L32.8701 20.934V15.7923L25.0657 11.2015L20.6586 8.63062V13.8641V17.3532V21.6685V34.1556L25.0657 36.7264V24.1476L30.5747 27.3612V23.1376Z" fill="white"/>
<path d="M36.9102 22.954V32.5948L20.016 42.3273L3.12175 32.5948V22.954L0 24.7904V34.4311L20.016 46L40.032 34.4311V24.7904L36.9102 22.954Z" fill="white"/>
<path d="M20.6586 0V3.58086L36.9101 12.9461V18.7306L40.0318 20.5669V11.2016L20.6586 0Z" fill="white"/>
<path d="M0 11.2018V20.5671L3.12175 18.7308V12.9463L19.3733 3.58105V0.000183105L0 11.2018Z" fill="white"/>
<path d="M55.0897 17.8126V20.5671H51.7843V29.5651H48.6626V20.5671H45.3572V17.8126H55.0897Z" fill="white"/>
<path d="M61.884 17.537C66.1076 17.537 68.2194 20.3833 68.2194 23.6887C68.2194 26.9941 66.1076 29.8404 61.884 29.8404C57.6605 29.8404 55.5487 26.9941 55.5487 23.6887C55.6405 20.3833 57.7523 17.537 61.884 17.537ZM61.884 20.3833C59.8641 20.3833 58.7623 21.7606 58.7623 23.6887C58.7623 25.525 59.8641 26.9941 61.884 26.9941C63.904 26.9941 65.0058 25.6168 65.0058 23.6887C65.0058 21.8524 63.9958 20.3833 61.884 20.3833Z" fill="white"/>
<path d="M78.5031 17.8126V20.5671H75.1977V29.5651H72.076V20.5671H68.7706V17.8126H78.5031Z" fill="white"/>
<path d="M77.4927 29.5651L82.0835 17.8126H85.4807L90.0715 29.5651H86.858L86.2152 27.7288H81.349L80.7063 29.5651H77.4927ZM82.2671 25.2497H85.2971L84.1035 21.8525C84.0117 21.5771 83.9198 21.3016 83.828 20.6589C83.7362 21.3016 83.6444 21.5771 83.5526 21.8525L82.2671 25.2497Z" fill="white"/>
<path d="M94.479 17.8126V26.8106H99.8962V29.5651H91.4491V17.8126H94.479Z" fill="white"/>
<path d="M109.904 17.8126V20.5671H104.487V22.5871H109.353V25.3416H104.487V29.5651H101.365V17.8126H109.904Z" fill="white"/>
<path d="M114.77 17.8126V29.5651H111.649V17.8126H114.77Z" fill="white"/>
<path d="M126.064 17.8126V20.5671H122.758V29.5651H119.636V20.5671H116.331V17.8126H126.064Z" fill="white"/>
</svg>
